<svg width="40" height="80" viewBox="0 0 40 80" fill="none" xmlns="http://www.w3.org/2000/svg">
  <path d="M10 75L5 80H35L30 75V65L10 65V75Z" fill="#FFD700"/>
  <path d="M10 65V15L30 15V65L10 65Z" fill="#FFA500"/>
  <path d="M10 15L15 5L25 5L30 15L10 15Z" fill="#8B4513"/>
  <path d="M15 5L20 0L25 5H15Z" fill="#808080"/>
  <path d="M20 0L22 2L18 2L20 0Z" fill="#C0C0C0"/>
  <path d="M10 65H30M10 55H30M10 45H30M10 35H30M10 25H30M10 15H30" stroke="#000000" stroke-width="0.5"/>
  <path d="M10 75L5 80H35L30 75M10 75V65M10 75H30M30 75V65M10 65H30M10 65V15M10 15H30M10 15L15 5M30 15V65M30 15L25 5M15 5H25M15 5L20 0M25 5L20 0" stroke="#000000" stroke-width="1"/>
</svg>

